# xmcd
#
# Track frame offsets:
#	150
#	12636
#	26265
#	39088
#	50684
#	60772
#	70904
#	82039
#	92191
#	103849
#	114946
#	127445
#	138138
#	148073
#	158502
#	169966
#	182148
#	193578
#	204493
#	217650
#	230569
#
# Disc length: 3223 seconds
#
# Revision: 0
# Processed by: cddbd v1.5.2PL0 Copyright (c) Steve Scherf et al.
# Submitted via: audiograbber 1.83.01
#
DISCID=240c9515
DTITLE=James Brown - The Federal Years - 1956-1960 Disc 1
DYEAR=2006
DGENRE=Soul
TTITLE0=Please, Please, Please
TTITLE1=Why Do You Do Me
TTITLE2=I Don't Know
TTITLE3=I Feel That Old Feeling Coming On
TTITLE4=No, No, No, No
TTITLE5=Hold My Baby's Hand
TTITLE6=I Won't Plead No More
TTITLE7=Chonnie-On-Chon
TTITLE8=Just Won't Do Right
TTITLE9=Let's Make It
TTITLE10=Gonna Try
TTITLE11=Can't Be the Same
TTITLE12=Messing with the Blues
TTITLE13=Love Or A Game
TTITLE14=You're Mine, You're Mine
TTITLE15=I Walked Alone
TTITLE16=That Dood It
TTITLE17=Baby Cries Over the Ocean
TTITLE18=Begging, Begging
TTITLE19=That's When I Lost My Heart
TTITLE20=Try Me (demo version)
EXTD=
EXTT0=
EXTT1=
EXTT2=
EXTT3=
EXTT4=
EXTT5=
EXTT6=
EXTT7=
EXTT8=
EXTT9=
EXTT10=
EXTT11=
EXTT12=
EXTT13=
EXTT14=
EXTT15=
EXTT16=
EXTT17=
EXTT18=
EXTT19=
EXTT20=
PLAYORDER=
